<svg xmlns="http://www.w3.org/2000/svg" width="640" height="484" fill="none" viewBox="0 0 640 484"><g opacity=".5"><mask id="mask0_13207_44547" style="mask-type:alpha" width="715" height="484" x="0" y="0" maskUnits="userSpaceOnUse"><rect width="677" height="421" x=".451" y="-.544" fill="url(#paint0_linear_13207_44547)" stroke="#667986" transform="matrix(0.995677 -0.0928861 -0.0928861 -0.995677 39.1496 482.108)"/></mask><g mask="url(#mask0_13207_44547)"><g opacity=".5"><path stroke="#0D6EFD" stroke-opacity=".6" stroke-width=".749" d="M115.043 366.214L431.556 323.009" opacity=".5"/><path stroke="#0D6EFD" stroke-opacity=".6" stroke-width=".749" d="M115.043 366.214L332.774 27.3882" opacity=".5"/><path stroke="#0D6EFD" stroke-opacity=".6" stroke-width=".749" d="M562.315 107.992L333.147 26.7879" opacity=".5"/><circle cx="117.359" cy="371.392" r="50.93" fill="#0D6EFD" fill-opacity=".3" transform="rotate(166.769 117.359 371.392)"/><circle cx="117.359" cy="371.392" r="50.555" stroke="#0D6EFD" stroke-opacity=".6" stroke-width=".749" transform="rotate(166.769 117.359 371.392)"/><circle cx="570.789" cy="109.081" r="55.5" fill="#0D6EFD" fill-opacity=".3" transform="rotate(166.769 570.789 109.081)"/><circle cx="570.789" cy="109.081" r="55.126" stroke="#0D6EFD" stroke-opacity=".6" stroke-width=".749" transform="rotate(166.769 570.789 109.081)"/><circle cx="431.957" cy="327" r="74.522" fill="#0D6EFD" fill-opacity=".3" transform="rotate(166.769 431.957 327)"/><circle cx="431.957" cy="327" r="74.148" stroke="#0D6EFD" stroke-opacity=".6" stroke-width=".749" transform="rotate(166.769 431.957 327)"/></g></g></g><defs><linearGradient id="paint0_linear_13207_44547" x1="339" x2="384.42" y1="0" y2="337.928" gradientUnits="userSpaceOnUse"><stop stop-color="#D9D9D9"/><stop offset="1" stop-color="#D9D9D9" stop-opacity="0"/></linearGradient></defs></svg>