<svg xmlns="http://www.w3.org/2000/svg" width="124" height="124" fill="none" viewBox="0 0 124 124"><g clip-path="url(#clip0_2042_24266)"><path fill="#0D6EFD" fill-rule="evenodd" d="M113.937 85.7448C113.937 98.3517 103.717 108.572 91.11 108.572C78.5031 108.572 68.2832 98.3517 68.2832 85.7448C68.2832 73.1379 78.5031 62.918 91.11 62.918C103.717 62.918 113.937 73.1379 113.937 85.7448ZM85.4834 75.8986L91.1058 81.3246L96.7283 75.8986C97.878 74.789 99.6999 74.789 100.85 75.8986C101.985 76.9946 101.985 78.814 100.85 79.91L95.124 85.4356L100.985 91.443C102.045 92.5285 101.986 94.2778 100.856 95.2894C99.8152 96.2207 98.2324 96.191 97.2277 95.2214L91.1058 89.3134L84.984 95.2214C83.9792 96.191 82.3965 96.2207 81.3562 95.2894C80.2262 94.2778 80.1671 92.5285 81.2262 91.443L87.0877 85.4356L81.362 79.91C80.2264 78.814 80.2264 76.9946 81.362 75.8986C82.5118 74.789 84.3337 74.789 85.4834 75.8986Z" clip-rule="evenodd"/><path fill="url(#paint0_radial_2042_24266)" fill-opacity=".5" fill-rule="evenodd" d="M113.937 85.7448C113.937 98.3517 103.717 108.572 91.11 108.572C78.5031 108.572 68.2832 98.3517 68.2832 85.7448C68.2832 73.1379 78.5031 62.918 91.11 62.918C103.717 62.918 113.937 73.1379 113.937 85.7448ZM85.4834 75.8986L91.1058 81.3246L96.7283 75.8986C97.878 74.789 99.6999 74.789 100.85 75.8986C101.985 76.9946 101.985 78.814 100.85 79.91L95.124 85.4356L100.985 91.443C102.045 92.5285 101.986 94.2778 100.856 95.2894C99.8152 96.2207 98.2324 96.191 97.2277 95.2214L91.1058 89.3134L84.984 95.2214C83.9792 96.191 82.3965 96.2207 81.3562 95.2894C80.2262 94.2778 80.1671 92.5285 81.2262 91.443L87.0877 85.4356L81.362 79.91C80.2264 78.814 80.2264 76.9946 81.362 75.8986C82.5118 74.789 84.3337 74.789 85.4834 75.8986Z" clip-rule="evenodd"/><path fill="#0D6EFD" d="M69.865 100.436C71.1832 102.339 72.7505 104.057 74.5198 105.542C70.1957 106.852 66.5375 107.368 61.7658 107.399C56.2767 107.408 51.9563 106.716 46.6581 104.937C43.8484 103.987 41.2669 102.849 38.8318 101.473C36.3251 98.4844 38.8305 94.9739 42.3408 96.4612C50.8261 101.048 60.6212 102.375 69.865 100.436Z"/><path fill="url(#paint1_radial_2042_24266)" fill-opacity=".5" d="M69.865 100.436C71.1832 102.339 72.7505 104.057 74.5198 105.542C70.1957 106.852 66.5375 107.368 61.7658 107.399C56.2767 107.408 51.9563 106.716 46.6581 104.937C43.8484 103.987 41.2669 102.849 38.8318 101.473C36.3251 98.4844 38.8305 94.9739 42.3408 96.4612C50.8261 101.048 60.6212 102.375 69.865 100.436Z"/><path fill="#0D6EFD" d="M29.25 89.6331C37.581 88.1366 51.5992 85.6081 65.418 83.1134C65.8475 78.8751 67.3018 74.9397 69.5292 71.5587C68.8497 71.8829 68.1077 72.1416 67.322 72.3292L66.2261 72.5903V73.7823C66.2261 75.0878 66.0892 75.417 65.4042 75.837C64.9186 76.1322 63.7978 76.1322 63.3121 75.837C62.6272 75.417 62.4902 75.0878 62.4902 73.7823V72.5903L61.4068 72.3292C57.6459 71.4438 55.0183 68.8441 55.0183 66.0174C55.0183 64.7346 55.6409 64.0876 56.8862 64.0876C58.007 64.0876 58.6546 64.6779 58.8165 65.8131C58.8663 66.165 59.0033 66.6418 59.1278 66.8575C59.5761 67.6635 60.9834 68.5944 62.154 68.8441L62.4902 68.9236L62.4902 62.3734L61.4068 62.1123C58.4304 61.4198 56.0021 59.5353 55.2673 57.3444C54.7941 55.9708 54.9685 54.2112 55.7032 52.883C56.687 51.1347 59.0531 49.5681 61.5188 49.0686L62.4902 48.8643L62.4902 47.695C62.4902 46.1511 62.6894 45.7879 63.6981 45.4473C64.5325 45.1749 65.5537 45.47 65.9771 46.1171C66.1888 46.4122 66.2261 46.696 66.2261 47.695C66.2261 48.7962 66.251 48.9211 66.4503 48.9211C66.9111 48.9211 68.1937 49.2843 69.0779 49.6703C72.0791 50.9531 73.8101 53.1781 73.6732 55.5621C73.6358 56.2659 73.586 56.4476 73.3245 56.6973C72.0791 57.912 70.124 57.3217 69.8998 55.6529C69.713 54.2566 68.7666 53.303 66.9484 52.69L66.2261 52.4402L66.2261 55.7891C66.2261 58.9337 66.2386 59.138 66.4503 59.138C66.9111 59.138 68.1937 59.5013 69.0779 59.8873C72.104 61.1814 73.6981 63.2475 73.6981 65.8471C73.6981 66.1545 73.6778 66.4487 73.6362 66.7322C78.2351 62.5036 84.372 59.9219 91.112 59.9219C96.8727 59.9219 102.193 61.8079 106.489 64.9962C106.572 56.0554 106.685 43.5726 106.747 35.8698C106.767 33.3696 104.54 31.4704 102.078 31.9116C84.3877 35.0826 40.0045 43.0881 27.5912 45.3276C25.6836 45.6717 24.3239 47.313 24.334 49.2514C24.338 50.0149 24.3427 50.862 24.348 51.7782L27.0714 51.3957C30.1728 50.9601 33.04 53.1211 33.4756 56.2225C33.7778 58.374 32.8303 60.4129 31.186 61.6054L36.462 60.8644C39.5634 60.4288 42.4306 62.5899 42.8662 65.6912C43.3018 68.7926 41.1408 71.6599 38.0394 72.0955L30.1156 73.2084C32.0267 73.9008 33.5011 75.6007 33.8035 77.7538C34.2391 80.8552 32.0781 83.7225 28.9767 84.1581L24.57 84.777L24.5767 85.7229C24.5945 88.2018 26.8101 90.0714 29.25 89.6331Z"/><path fill="url(#paint2_radial_2042_24266)" fill-opacity=".5" d="M29.25 89.6331C37.581 88.1366 51.5992 85.6081 65.418 83.1134C65.8475 78.8751 67.3018 74.9397 69.5292 71.5587C68.8497 71.8829 68.1077 72.1416 67.322 72.3292L66.2261 72.5903V73.7823C66.2261 75.0878 66.0892 75.417 65.4042 75.837C64.9186 76.1322 63.7978 76.1322 63.3121 75.837C62.6272 75.417 62.4902 75.0878 62.4902 73.7823V72.5903L61.4068 72.3292C57.6459 71.4438 55.0183 68.8441 55.0183 66.0174C55.0183 64.7346 55.6409 64.0876 56.8862 64.0876C58.007 64.0876 58.6546 64.6779 58.8165 65.8131C58.8663 66.165 59.0033 66.6418 59.1278 66.8575C59.5761 67.6635 60.9834 68.5944 62.154 68.8441L62.4902 68.9236L62.4902 62.3734L61.4068 62.1123C58.4304 61.4198 56.0021 59.5353 55.2673 57.3444C54.7941 55.9708 54.9685 54.2112 55.7032 52.883C56.687 51.1347 59.0531 49.5681 61.5188 49.0686L62.4902 48.8643L62.4902 47.695C62.4902 46.1511 62.6894 45.7879 63.6981 45.4473C64.5325 45.1749 65.5537 45.47 65.9771 46.1171C66.1888 46.4122 66.2261 46.696 66.2261 47.695C66.2261 48.7962 66.251 48.9211 66.4503 48.9211C66.9111 48.9211 68.1937 49.2843 69.0779 49.6703C72.0791 50.9531 73.8101 53.1781 73.6732 55.5621C73.6358 56.2659 73.586 56.4476 73.3245 56.6973C72.0791 57.912 70.124 57.3217 69.8998 55.6529C69.713 54.2566 68.7666 53.303 66.9484 52.69L66.2261 52.4402L66.2261 55.7891C66.2261 58.9337 66.2386 59.138 66.4503 59.138C66.9111 59.138 68.1937 59.5013 69.0779 59.8873C72.104 61.1814 73.6981 63.2475 73.6981 65.8471C73.6981 66.1545 73.6778 66.4487 73.6362 66.7322C78.2351 62.5036 84.372 59.9219 91.112 59.9219C96.8727 59.9219 102.193 61.8079 106.489 64.9962C106.572 56.0554 106.685 43.5726 106.747 35.8698C106.767 33.3696 104.54 31.4704 102.078 31.9116C84.3877 35.0826 40.0045 43.0881 27.5912 45.3276C25.6836 45.6717 24.3239 47.313 24.334 49.2514C24.338 50.0149 24.3427 50.862 24.348 51.7782L27.0714 51.3957C30.1728 50.9601 33.04 53.1211 33.4756 56.2225C33.7778 58.374 32.8303 60.4129 31.186 61.6054L36.462 60.8644C39.5634 60.4288 42.4306 62.5899 42.8662 65.6912C43.3018 68.7926 41.1408 71.6599 38.0394 72.0955L30.1156 73.2084C32.0267 73.9008 33.5011 75.6007 33.8035 77.7538C34.2391 80.8552 32.0781 83.7225 28.9767 84.1581L24.57 84.777L24.5767 85.7229C24.5945 88.2018 26.8101 90.0714 29.25 89.6331Z"/><path fill="#0D6EFD" d="M27.898 19.8447C27.734 20.9451 27.7703 30.5477 27.9499 31.387C28.019 31.731 28.3496 32.2266 28.8315 32.7086C29.3135 33.1905 29.809 33.5211 30.153 33.5902C30.9924 33.7698 40.595 33.8061 41.6954 33.642C42.4657 33.5327 42.7682 33.3679 43.4005 32.7356C44.7337 31.4024 44.7324 29.9166 43.4105 28.5947C42.5843 27.7685 42.1714 27.6306 40.4792 27.5602C39.7088 27.532 39.5436 27.4768 39.8049 27.3257C39.9974 27.2159 40.6437 26.845 41.2349 26.5016C45.5523 23.9192 51.5074 21.9298 56.6521 21.3567C67.079 20.1831 77.3582 22.9852 85.7421 29.28C85.8584 29.3667 85.9795 29.4599 86.1049 29.5591L93.5543 28.2135C91.6309 26.3531 89.576 24.5127 88.4747 23.7383C77.9299 16.2997 65.422 13.4956 52.8775 15.7678C47.3892 16.7671 41.0632 19.2651 36.5261 22.2601C35.5774 22.9058 34.615 23.5377 34.395 23.6751C34.01 23.9224 33.9961 23.8261 33.9669 21.9826C33.937 19.3412 33.8542 19.0384 32.9454 18.1296C31.6235 16.8077 30.1377 16.8064 28.8045 18.1396C28.1722 18.7719 28.0074 19.0744 27.898 19.8447Z"/><path fill="url(#paint3_radial_2042_24266)" fill-opacity=".5" d="M27.898 19.8447C27.734 20.9451 27.7703 30.5477 27.9499 31.387C28.019 31.731 28.3496 32.2266 28.8315 32.7086C29.3135 33.1905 29.809 33.5211 30.153 33.5902C30.9924 33.7698 40.595 33.8061 41.6954 33.642C42.4657 33.5327 42.7682 33.3679 43.4005 32.7356C44.7337 31.4024 44.7324 29.9166 43.4105 28.5947C42.5843 27.7685 42.1714 27.6306 40.4792 27.5602C39.7088 27.532 39.5436 27.4768 39.8049 27.3257C39.9974 27.2159 40.6437 26.845 41.2349 26.5016C45.5523 23.9192 51.5074 21.9298 56.6521 21.3567C67.079 20.1831 77.3582 22.9852 85.7421 29.28C85.8584 29.3667 85.9795 29.4599 86.1049 29.5591L93.5543 28.2135C91.6309 26.3531 89.576 24.5127 88.4747 23.7383C77.9299 16.2997 65.422 13.4956 52.8775 15.7678C47.3892 16.7671 41.0632 19.2651 36.5261 22.2601C35.5774 22.9058 34.615 23.5377 34.395 23.6751C34.01 23.9224 33.9961 23.8261 33.9669 21.9826C33.937 19.3412 33.8542 19.0384 32.9454 18.1296C31.6235 16.8077 30.1377 16.8064 28.8045 18.1396C28.1722 18.7719 28.0074 19.0744 27.898 19.8447Z"/><path fill="#0D6EFD" d="M68.1066 63.4064C69.6259 64.2692 70.2361 65.6882 69.601 66.8348C69.1402 67.6635 67.7454 68.583 66.5748 68.8441L66.2261 68.9236V62.6572L66.9484 62.9069C67.3345 63.0318 67.8575 63.2588 68.1066 63.4064Z"/><path fill="url(#paint4_radial_2042_24266)" fill-opacity=".5" d="M68.1066 63.4064C69.6259 64.2692 70.2361 65.6882 69.601 66.8348C69.1402 67.6635 67.7454 68.583 66.5748 68.8441L66.2261 68.9236V62.6572L66.9484 62.9069C67.3345 63.0318 67.8575 63.2588 68.1066 63.4064Z"/><path fill="#0D6EFD" d="M62.4902 55.5734V58.7066L62.1539 58.6272C60.9709 58.3661 59.5761 57.4465 59.1154 56.6178C58.6048 55.7097 58.8912 54.5858 59.8377 53.7457C60.3731 53.2689 61.5811 52.6673 62.4653 52.4516C62.4777 52.4402 62.4902 53.8479 62.4902 55.5734Z"/><path fill="url(#paint5_radial_2042_24266)" fill-opacity=".5" d="M62.4902 55.5734V58.7066L62.1539 58.6272C60.9709 58.3661 59.5761 57.4465 59.1154 56.6178C58.6048 55.7097 58.8912 54.5858 59.8377 53.7457C60.3731 53.2689 61.5811 52.6673 62.4653 52.4516C62.4777 52.4402 62.4902 53.8479 62.4902 55.5734Z"/><path fill="#0D6EFD" d="M24.3661 54.8051L27.4886 54.3665C28.9493 54.1614 30.2996 55.1791 30.5048 56.6397C30.5507 56.9667 30.5353 57.2881 30.4675 57.5924C30.2326 58.6483 29.3654 59.4982 28.2312 59.6575L9.04242 62.3526C7.5818 62.5578 6.23143 61.54 6.02629 60.0794C5.82115 58.6188 6.83891 57.2684 8.29953 57.0632L24.3661 54.8067L24.3661 54.8051Z"/><path fill="url(#paint6_radial_2042_24266)" fill-opacity=".5" d="M24.3661 54.8051L27.4886 54.3665C28.9493 54.1614 30.2996 55.1791 30.5048 56.6397C30.5507 56.9667 30.5353 57.2881 30.4675 57.5924C30.2326 58.6483 29.3654 59.4982 28.2312 59.6575L9.04242 62.3526C7.5818 62.5578 6.23143 61.54 6.02629 60.0794C5.82115 58.6188 6.83891 57.2684 8.29953 57.0632L24.3661 54.8067L24.3661 54.8051Z"/><path fill="#0D6EFD" d="M36.8793 63.8352L24.4362 65.5829L24.4362 65.5845L17.6902 66.532C16.2295 66.7371 15.2118 68.0875 15.4169 69.5481C15.6221 71.0087 16.9724 72.0265 18.433 71.8214L37.6218 69.1263C38.7561 68.967 39.6233 68.117 39.8581 67.0611C39.926 66.7568 39.9413 66.4354 39.8954 66.1085C39.6903 64.6479 38.3399 63.6301 36.8793 63.8352Z"/><path fill="url(#paint7_radial_2042_24266)" fill-opacity=".5" d="M36.8793 63.8352L24.4362 65.5829L24.4362 65.5845L17.6902 66.532C16.2295 66.7371 15.2118 68.0875 15.4169 69.5481C15.6221 71.0087 16.9724 72.0265 18.433 71.8214L37.6218 69.1263C38.7561 68.967 39.6233 68.117 39.8581 67.0611C39.926 66.7568 39.9413 66.4354 39.8954 66.1085C39.6903 64.6479 38.3399 63.6301 36.8793 63.8352Z"/><path fill="#0D6EFD" d="M24.5104 76.3622L27.8165 75.8979C29.2772 75.6927 30.6275 76.7105 30.8327 78.1711C30.8786 78.498 30.8632 78.8195 30.7954 79.1238C30.5605 80.1797 29.6933 81.0296 28.5591 81.1889L14.3217 83.1886C12.8611 83.3937 11.5107 82.3759 11.3056 80.9153C11.1004 79.4547 12.1182 78.1043 13.5788 77.8992L24.5104 76.3638L24.5104 76.3622Z"/><path fill="url(#paint8_radial_2042_24266)" fill-opacity=".5" d="M24.5104 76.3622L27.8165 75.8979C29.2772 75.6927 30.6275 76.7105 30.8327 78.1711C30.8786 78.498 30.8632 78.8195 30.7954 79.1238C30.5605 80.1797 29.6933 81.0296 28.5591 81.1889L14.3217 83.1886C12.8611 83.3937 11.5107 82.3759 11.3056 80.9153C11.1004 79.4547 12.1182 78.1043 13.5788 77.8992L24.5104 76.3638L24.5104 76.3622Z"/><g filter="url(#filter0_d_2042_24266)"><circle cx="91.25" cy="85.25" r="22.25" fill="#0D6EFD"/><path fill="#fff" d="M94.4161 81.6833L87.8835 87.9877L84.2921 84.5217L82.4594 82.7531C81.4863 81.814 79.9444 81.814 78.9714 82.7531C78.0265 83.665 78.0265 85.1788 78.9714 86.0907L82.5628 89.5566L87.8835 94.6914L96.1601 86.704L102.693 80.3996C103.646 79.4799 103.646 77.9532 102.693 77.0335C101.728 76.1024 100.199 76.1024 99.2342 77.0335L94.4161 81.6833Z"/></g></g><defs><filter id="filter0_d_2042_24266" width="70.5" height="70.5" x="56" y="51.63" color-interpolation-filters="sRGB" filterUnits="userSpaceOnUse"><feFlood flood-opacity="0" result="BackgroundImageFix"/><feColorMatrix in="SourceAlpha" result="hardAlpha" type="matrix" values="0 0 0 0 0 0 0 0 0 0 0 0 0 0 0 0 0 0 127 0"/><feOffset dy="1.63"/><feGaussianBlur stdDeviation="6.5"/><feComposite in2="hardAlpha" operator="out"/><feColorMatrix type="matrix" values="0 0 0 0 0.0509804 0 0 0 0 0.431373 0 0 0 0 0.992157 0 0 0 0.5 0"/><feBlend in2="BackgroundImageFix" mode="normal" result="effect1_dropShadow_2042_24266"/><feBlend in="SourceGraphic" in2="effect1_dropShadow_2042_24266" mode="normal" result="shape"/></filter><radialGradient id="paint0_radial_2042_24266" cx="0" cy="0" r="1" gradientTransform="translate(32 95) rotate(-34.0609) scale(85.703 98.8602)" gradientUnits="userSpaceOnUse"><stop stop-color="#fff"/><stop offset="1" stop-color="#fff" stop-opacity="0"/></radialGradient><radialGradient id="paint1_radial_2042_24266" cx="0" cy="0" r="1" gradientTransform="translate(32 95) rotate(-34.0609) scale(85.703 98.8602)" gradientUnits="userSpaceOnUse"><stop stop-color="#fff"/><stop offset="1" stop-color="#fff" stop-opacity="0"/></radialGradient><radialGradient id="paint2_radial_2042_24266" cx="0" cy="0" r="1" gradientTransform="translate(32 95) rotate(-34.0609) scale(85.703 98.8602)" gradientUnits="userSpaceOnUse"><stop stop-color="#fff"/><stop offset="1" stop-color="#fff" stop-opacity="0"/></radialGradient><radialGradient id="paint3_radial_2042_24266" cx="0" cy="0" r="1" gradientTransform="translate(32 95) rotate(-34.0609) scale(85.703 98.8602)" gradientUnits="userSpaceOnUse"><stop stop-color="#fff"/><stop offset="1" stop-color="#fff" stop-opacity="0"/></radialGradient><radialGradient id="paint4_radial_2042_24266" cx="0" cy="0" r="1" gradientTransform="translate(32 95) rotate(-34.0609) scale(85.703 98.8602)" gradientUnits="userSpaceOnUse"><stop stop-color="#fff"/><stop offset="1" stop-color="#fff" stop-opacity="0"/></radialGradient><radialGradient id="paint5_radial_2042_24266" cx="0" cy="0" r="1" gradientTransform="translate(32 95) rotate(-34.0609) scale(85.703 98.8602)" gradientUnits="userSpaceOnUse"><stop stop-color="#fff"/><stop offset="1" stop-color="#fff" stop-opacity="0"/></radialGradient><radialGradient id="paint6_radial_2042_24266" cx="0" cy="0" r="1" gradientTransform="translate(32 95) rotate(-34.0609) scale(85.703 98.8602)" gradientUnits="userSpaceOnUse"><stop stop-color="#fff"/><stop offset="1" stop-color="#fff" stop-opacity="0"/></radialGradient><radialGradient id="paint7_radial_2042_24266" cx="0" cy="0" r="1" gradientTransform="translate(32 95) rotate(-34.0609) scale(85.703 98.8602)" gradientUnits="userSpaceOnUse"><stop stop-color="#fff"/><stop offset="1" stop-color="#fff" stop-opacity="0"/></radialGradient><radialGradient id="paint8_radial_2042_24266" cx="0" cy="0" r="1" gradientTransform="translate(32 95) rotate(-34.0609) scale(85.703 98.8602)" gradientUnits="userSpaceOnUse"><stop stop-color="#fff"/><stop offset="1" stop-color="#fff" stop-opacity="0"/></radialGradient><clipPath id="clip0_2042_24266"><rect width="124" height="124" fill="#fff"/></clipPath></defs></svg>