<svg xmlns="http://www.w3.org/2000/svg" width="125" height="124" fill="none" viewBox="0 0 125 124"><g clip-path="url(#clip0_2042_25613)"><path fill="#0D6EFD" d="M45.136 14.0565L44.7616 36.9177C44.745 37.9282 44.3734 38.9008 43.7118 39.6648C43.0311 40.4509 42.0889 40.964 41.0593 41.1092L16.5838 44.5626C16.0388 41.8117 18.2863 38.6375 19.4781 37.3942C20.3932 36.2795 22.4519 32.9262 24.7287 29.2177C27.1375 25.2941 29.7904 20.9728 31.5917 18.4838C32.7995 16.9524 41.5045 13.519 45.136 14.0565Z"/><path fill="url(#paint0_radial_2042_25613)" fill-opacity=".45" d="M45.136 14.0565L44.7616 36.9177C44.745 37.9282 44.3734 38.9008 43.7118 39.6648C43.0311 40.4509 42.0889 40.964 41.0593 41.1092L16.5838 44.5626C16.0388 41.8117 18.2863 38.6375 19.4781 37.3942C20.3932 36.2795 22.4519 32.9262 24.7287 29.2177C27.1375 25.2941 29.7904 20.9728 31.5917 18.4838C32.7995 16.9524 41.5045 13.519 45.136 14.0565Z"/><path fill="#0D6EFD" fill-rule="evenodd" d="M41.4777 44.077L19.9644 47.1124L19.1705 105.566C19.129 108.62 21.6973 111.063 24.7457 110.868L80.7564 107.297C81.457 107.252 82.1414 107.067 82.7692 106.753L83.2532 106.511C70.8577 104.776 61.3184 94.1311 61.3184 81.2578C61.3184 78.0582 61.9076 74.9962 62.9836 72.1745L36.504 74.4234C34.7731 74.5704 33.2508 73.2865 33.1038 71.5556C32.9568 69.8247 34.2408 68.3024 35.9716 68.1554L66.735 65.5427C71.2912 59.7281 78.3179 55.9421 86.2351 55.7644L86.3003 23.9019C86.3099 19.2322 82.3483 15.5391 77.6908 15.8758L48.0708 18.0171L47.7605 36.964C47.7324 38.6789 47.1017 40.3292 45.979 41.6258C44.8239 42.9598 43.2249 43.8305 41.4777 44.077ZM68.2103 58.8518C69.9407 58.6991 71.2196 57.1726 71.0669 55.4422C70.9142 53.7118 69.3877 52.4329 67.6573 52.5856L35.6507 55.4102C33.9204 55.5629 32.6414 57.0895 32.7941 58.8198C32.9468 60.5502 34.4734 61.8292 36.2037 61.6765L68.2103 58.8518ZM52.2577 85.8619C53.9886 85.7149 55.2725 84.1926 55.1255 82.4618C54.9785 80.7309 53.4562 79.4469 51.7254 79.5939L36.2372 80.9093C34.5064 81.0563 33.2224 82.5786 33.3694 84.3095C33.5164 86.0404 35.0387 87.3243 36.7696 87.1774L52.2577 85.8619Z" clip-rule="evenodd"/><path fill="url(#paint1_radial_2042_25613)" fill-opacity=".45" fill-rule="evenodd" d="M41.4777 44.077L19.9644 47.1124L19.1705 105.566C19.129 108.62 21.6973 111.063 24.7457 110.868L80.7564 107.297C81.457 107.252 82.1414 107.067 82.7692 106.753L83.2532 106.511C70.8577 104.776 61.3184 94.1311 61.3184 81.2578C61.3184 78.0582 61.9076 74.9962 62.9836 72.1745L36.504 74.4234C34.7731 74.5704 33.2508 73.2865 33.1038 71.5556C32.9568 69.8247 34.2408 68.3024 35.9716 68.1554L66.735 65.5427C71.2912 59.7281 78.3179 55.9421 86.2351 55.7644L86.3003 23.9019C86.3099 19.2322 82.3483 15.5391 77.6908 15.8758L48.0708 18.0171L47.7605 36.964C47.7324 38.6789 47.1017 40.3292 45.979 41.6258C44.8239 42.9598 43.2249 43.8305 41.4777 44.077ZM68.2103 58.8518C69.9407 58.6991 71.2196 57.1726 71.0669 55.4422C70.9142 53.7118 69.3877 52.4329 67.6573 52.5856L35.6507 55.4102C33.9204 55.5629 32.6414 57.0895 32.7941 58.8198C32.9468 60.5502 34.4734 61.8292 36.2037 61.6765L68.2103 58.8518ZM52.2577 85.8619C53.9886 85.7149 55.2725 84.1926 55.1255 82.4618C54.9785 80.7309 53.4562 79.4469 51.7254 79.5939L36.2372 80.9093C34.5064 81.0563 33.2224 82.5786 33.3694 84.3095C33.5164 86.0404 35.0387 87.3243 36.7696 87.1774L52.2577 85.8619Z" clip-rule="evenodd"/><path fill="#0D6EFD" fill-rule="evenodd" d="M109.32 81.2617C109.32 93.6881 99.2467 103.762 86.8203 103.762C74.3939 103.762 64.3203 93.6881 64.3203 81.2617C64.3203 68.8353 74.3939 58.7617 86.8203 58.7617C99.2467 58.7617 109.32 68.8353 109.32 81.2617ZM86.8152 76.9026L81.2736 71.5546C80.1403 70.4609 78.3445 70.4609 77.2112 71.5546C76.0918 72.6349 76.0918 74.4283 77.2112 75.5086L82.8546 80.9548L77.0767 86.8765C76.0327 87.9464 76.091 89.6707 77.2048 90.6678C78.2302 91.5857 79.7903 91.5565 80.7806 90.6008L86.8152 84.777L92.8498 90.6008C93.8401 91.5565 95.4002 91.5857 96.4256 90.6678C97.5394 89.6707 97.5976 87.9464 96.5537 86.8765L90.7758 80.9548L96.4192 75.5086C97.5386 74.4283 97.5386 72.6349 96.4192 71.5546C95.2859 70.4609 93.4901 70.4609 92.3568 71.5546L86.8152 76.9026Z" clip-rule="evenodd"/><path fill="url(#paint2_radial_2042_25613)" fill-opacity=".45" fill-rule="evenodd" d="M109.32 81.2617C109.32 93.6881 99.2467 103.762 86.8203 103.762C74.3939 103.762 64.3203 93.6881 64.3203 81.2617C64.3203 68.8353 74.3939 58.7617 86.8203 58.7617C99.2467 58.7617 109.32 68.8353 109.32 81.2617ZM86.8152 76.9026L81.2736 71.5546C80.1403 70.4609 78.3445 70.4609 77.2112 71.5546C76.0918 72.6349 76.0918 74.4283 77.2112 75.5086L82.8546 80.9548L77.0767 86.8765C76.0327 87.9464 76.091 89.6707 77.2048 90.6678C78.2302 91.5857 79.7903 91.5565 80.7806 90.6008L86.8152 84.777L92.8498 90.6008C93.8401 91.5565 95.4002 91.5857 96.4256 90.6678C97.5394 89.6707 97.5976 87.9464 96.5537 86.8765L90.7758 80.9548L96.4192 75.5086C97.5386 74.4283 97.5386 72.6349 96.4192 71.5546C95.2859 70.4609 93.4901 70.4609 92.3568 71.5546L86.8152 76.9026Z" clip-rule="evenodd"/><g filter="url(#filter0_d_2042_25613)"><circle cx="86.75" cy="81.25" r="22.25" fill="#0D6EFD"/><path fill="#fff" d="M89.9161 77.6833L83.3835 83.9877L79.7921 80.5217L77.9594 78.7531C76.9863 77.814 75.4444 77.814 74.4714 78.7531C73.5265 79.665 73.5265 81.1788 74.4714 82.0907L78.0628 85.5566L83.3835 90.6914L91.6601 82.704L98.1926 76.3996C99.1456 75.4799 99.1456 73.9532 98.1926 73.0335C97.2278 72.1024 95.699 72.1024 94.7342 73.0335L89.9161 77.6833Z"/></g></g><defs><filter id="filter0_d_2042_25613" width="80.5" height="80.5" x="46.5" y="42.63" color-interpolation-filters="sRGB" filterUnits="userSpaceOnUse"><feFlood flood-opacity="0" result="BackgroundImageFix"/><feColorMatrix in="SourceAlpha" result="hardAlpha" type="matrix" values="0 0 0 0 0 0 0 0 0 0 0 0 0 0 0 0 0 0 127 0"/><feOffset dy="1.63"/><feGaussianBlur stdDeviation="9"/><feComposite in2="hardAlpha" operator="out"/><feColorMatrix type="matrix" values="0 0 0 0 0.0509804 0 0 0 0 0.431373 0 0 0 0 0.992157 0 0 0 0.5 0"/><feBlend in2="BackgroundImageFix" mode="normal" result="effect1_dropShadow_2042_25613"/><feBlend in="SourceGraphic" in2="effect1_dropShadow_2042_25613" mode="normal" result="shape"/></filter><radialGradient id="paint0_radial_2042_25613" cx="0" cy="0" r="1" gradientTransform="translate(23.4824 111) rotate(-50.304) scale(133.863 128.254)" gradientUnits="userSpaceOnUse"><stop stop-color="#01294C"/><stop offset="1" stop-color="#fff" stop-opacity="0"/></radialGradient><radialGradient id="paint1_radial_2042_25613" cx="0" cy="0" r="1" gradientTransform="translate(23.4824 111) rotate(-50.304) scale(133.863 128.254)" gradientUnits="userSpaceOnUse"><stop stop-color="#01294C"/><stop offset="1" stop-color="#fff" stop-opacity="0"/></radialGradient><radialGradient id="paint2_radial_2042_25613" cx="0" cy="0" r="1" gradientTransform="translate(23.4824 111) rotate(-50.304) scale(133.863 128.254)" gradientUnits="userSpaceOnUse"><stop stop-color="#01294C"/><stop offset="1" stop-color="#fff" stop-opacity="0"/></radialGradient><clipPath id="clip0_2042_25613"><rect width="124" height="124" fill="#fff" transform="translate(0.5)"/></clipPath></defs></svg>