<svg xmlns="http://www.w3.org/2000/svg" width="124" height="124" fill="none" viewBox="0 0 124 124"><g clip-path="url(#clip0_2042_24252)"><path fill="#0D6EFD" d="M44.636 14.0565L44.2616 36.9177C44.245 37.9282 43.8734 38.9008 43.2118 39.6648C42.5311 40.4509 41.5889 40.964 40.5593 41.1092L16.0838 44.5626C15.5388 41.8117 17.7863 38.6375 18.9781 37.3942C19.8932 36.2795 21.9519 32.9262 24.2287 29.2177C26.6375 25.2941 29.2904 20.9728 31.0917 18.4838C32.2995 16.9524 41.0045 13.519 44.636 14.0565Z"/><path fill="url(#paint0_radial_2042_24252)" fill-opacity=".45" d="M44.636 14.0565L44.2616 36.9177C44.245 37.9282 43.8734 38.9008 43.2118 39.6648C42.5311 40.4509 41.5889 40.964 40.5593 41.1092L16.0838 44.5626C15.5388 41.8117 17.7863 38.6375 18.9781 37.3942C19.8932 36.2795 21.9519 32.9262 24.2287 29.2177C26.6375 25.2941 29.2904 20.9728 31.0917 18.4838C32.2995 16.9524 41.0045 13.519 44.636 14.0565Z"/><path fill="#0D6EFD" fill-rule="evenodd" d="M40.9777 44.077L19.4644 47.1124L18.6705 105.566C18.629 108.62 21.1973 111.063 24.2457 110.868L80.2564 107.297C80.957 107.252 81.6414 107.067 82.2692 106.753L82.7532 106.511C70.3577 104.776 60.8184 94.1311 60.8184 81.2578C60.8184 78.0582 61.4076 74.9962 62.4836 72.1745L36.004 74.4234C34.2731 74.5704 32.7508 73.2865 32.6038 71.5556C32.4568 69.8247 33.7408 68.3024 35.4716 68.1554L66.235 65.5427C70.7912 59.7281 77.8179 55.9421 85.7351 55.7644L85.8003 23.9019C85.8099 19.2322 81.8483 15.5391 77.1908 15.8758L47.5708 18.0171L47.2605 36.964C47.2324 38.6789 46.6017 40.3292 45.479 41.6258C44.3239 42.9598 42.7249 43.8305 40.9777 44.077ZM67.7103 58.8518C69.4407 58.6991 70.7196 57.1726 70.5669 55.4422C70.4142 53.7118 68.8877 52.4329 67.1573 52.5856L35.1507 55.4102C33.4204 55.5629 32.1414 57.0895 32.2941 58.8198C32.4468 60.5502 33.9734 61.8292 35.7037 61.6765L67.7103 58.8518ZM51.7577 85.8619C53.4886 85.7149 54.7725 84.1926 54.6255 82.4618C54.4785 80.7309 52.9562 79.4469 51.2254 79.5939L35.7372 80.9093C34.0064 81.0563 32.7224 82.5786 32.8694 84.3095C33.0164 86.0404 34.5387 87.3243 36.2696 87.1774L51.7577 85.8619Z" clip-rule="evenodd"/><path fill="url(#paint1_radial_2042_24252)" fill-opacity=".45" fill-rule="evenodd" d="M40.9777 44.077L19.4644 47.1124L18.6705 105.566C18.629 108.62 21.1973 111.063 24.2457 110.868L80.2564 107.297C80.957 107.252 81.6414 107.067 82.2692 106.753L82.7532 106.511C70.3577 104.776 60.8184 94.1311 60.8184 81.2578C60.8184 78.0582 61.4076 74.9962 62.4836 72.1745L36.004 74.4234C34.2731 74.5704 32.7508 73.2865 32.6038 71.5556C32.4568 69.8247 33.7408 68.3024 35.4716 68.1554L66.235 65.5427C70.7912 59.7281 77.8179 55.9421 85.7351 55.7644L85.8003 23.9019C85.8099 19.2322 81.8483 15.5391 77.1908 15.8758L47.5708 18.0171L47.2605 36.964C47.2324 38.6789 46.6017 40.3292 45.479 41.6258C44.3239 42.9598 42.7249 43.8305 40.9777 44.077ZM67.7103 58.8518C69.4407 58.6991 70.7196 57.1726 70.5669 55.4422C70.4142 53.7118 68.8877 52.4329 67.1573 52.5856L35.1507 55.4102C33.4204 55.5629 32.1414 57.0895 32.2941 58.8198C32.4468 60.5502 33.9734 61.8292 35.7037 61.6765L67.7103 58.8518ZM51.7577 85.8619C53.4886 85.7149 54.7725 84.1926 54.6255 82.4618C54.4785 80.7309 52.9562 79.4469 51.2254 79.5939L35.7372 80.9093C34.0064 81.0563 32.7224 82.5786 32.8694 84.3095C33.0164 86.0404 34.5387 87.3243 36.2696 87.1774L51.7577 85.8619Z" clip-rule="evenodd"/><path fill="#0D6EFD" fill-rule="evenodd" d="M108.82 81.2617C108.82 93.6881 98.7467 103.762 86.3203 103.762C73.8939 103.762 63.8203 93.6881 63.8203 81.2617C63.8203 68.8353 73.8939 58.7617 86.3203 58.7617C98.7467 58.7617 108.82 68.8353 108.82 81.2617ZM86.3152 76.9026L80.7736 71.5546C79.6403 70.4609 77.8445 70.4609 76.7112 71.5546C75.5918 72.6349 75.5918 74.4283 76.7112 75.5086L82.3546 80.9548L76.5767 86.8765C75.5327 87.9464 75.591 89.6707 76.7048 90.6678C77.7302 91.5857 79.2903 91.5565 80.2806 90.6008L86.3152 84.777L92.3498 90.6008C93.3401 91.5565 94.9002 91.5857 95.9256 90.6678C97.0394 89.6707 97.0976 87.9464 96.0537 86.8765L90.2758 80.9548L95.9192 75.5086C97.0386 74.4283 97.0386 72.6349 95.9192 71.5546C94.7859 70.4609 92.9901 70.4609 91.8568 71.5546L86.3152 76.9026Z" clip-rule="evenodd"/><path fill="url(#paint2_radial_2042_24252)" fill-opacity=".45" fill-rule="evenodd" d="M108.82 81.2617C108.82 93.6881 98.7467 103.762 86.3203 103.762C73.8939 103.762 63.8203 93.6881 63.8203 81.2617C63.8203 68.8353 73.8939 58.7617 86.3203 58.7617C98.7467 58.7617 108.82 68.8353 108.82 81.2617ZM86.3152 76.9026L80.7736 71.5546C79.6403 70.4609 77.8445 70.4609 76.7112 71.5546C75.5918 72.6349 75.5918 74.4283 76.7112 75.5086L82.3546 80.9548L76.5767 86.8765C75.5327 87.9464 75.591 89.6707 76.7048 90.6678C77.7302 91.5857 79.2903 91.5565 80.2806 90.6008L86.3152 84.777L92.3498 90.6008C93.3401 91.5565 94.9002 91.5857 95.9256 90.6678C97.0394 89.6707 97.0976 87.9464 96.0537 86.8765L90.2758 80.9548L95.9192 75.5086C97.0386 74.4283 97.0386 72.6349 95.9192 71.5546C94.7859 70.4609 92.9901 70.4609 91.8568 71.5546L86.3152 76.9026Z" clip-rule="evenodd"/><g filter="url(#filter0_d_2042_24252)"><circle cx="86.25" cy="81.25" r="22.25" fill="#0D6EFD"/><path fill="#fff" d="M89.4161 77.6833L82.8835 83.9877L79.2921 80.5217L77.4594 78.7531C76.4863 77.814 74.9444 77.814 73.9714 78.7531C73.0265 79.665 73.0265 81.1788 73.9714 82.0907L77.5628 85.5566L82.8835 90.6914L91.1601 82.704L97.6926 76.3996C98.6456 75.4799 98.6456 73.9532 97.6926 73.0335C96.7278 72.1024 95.199 72.1024 94.2342 73.0335L89.4161 77.6833Z"/></g></g><defs><filter id="filter0_d_2042_24252" width="80.5" height="80.5" x="46" y="42.63" color-interpolation-filters="sRGB" filterUnits="userSpaceOnUse"><feFlood flood-opacity="0" result="BackgroundImageFix"/><feColorMatrix in="SourceAlpha" result="hardAlpha" type="matrix" values="0 0 0 0 0 0 0 0 0 0 0 0 0 0 0 0 0 0 127 0"/><feOffset dy="1.63"/><feGaussianBlur stdDeviation="9"/><feComposite in2="hardAlpha" operator="out"/><feColorMatrix type="matrix" values="0 0 0 0 0.0509804 0 0 0 0 0.431373 0 0 0 0 0.992157 0 0 0 0.5 0"/><feBlend in2="BackgroundImageFix" mode="normal" result="effect1_dropShadow_2042_24252"/><feBlend in="SourceGraphic" in2="effect1_dropShadow_2042_24252" mode="normal" result="shape"/></filter><radialGradient id="paint0_radial_2042_24252" cx="0" cy="0" r="1" gradientTransform="translate(23.5 111) rotate(-53.3202) scale(90.4005 86.6129)" gradientUnits="userSpaceOnUse"><stop stop-color="#fff"/><stop offset="1" stop-color="#fff" stop-opacity="0"/></radialGradient><radialGradient id="paint1_radial_2042_24252" cx="0" cy="0" r="1" gradientTransform="translate(23.5 111) rotate(-53.3202) scale(90.4005 86.6129)" gradientUnits="userSpaceOnUse"><stop stop-color="#fff"/><stop offset="1" stop-color="#fff" stop-opacity="0"/></radialGradient><radialGradient id="paint2_radial_2042_24252" cx="0" cy="0" r="1" gradientTransform="translate(23.5 111) rotate(-53.3202) scale(90.4005 86.6129)" gradientUnits="userSpaceOnUse"><stop stop-color="#fff"/><stop offset="1" stop-color="#fff" stop-opacity="0"/></radialGradient><clipPath id="clip0_2042_24252"><rect width="124" height="124" fill="#fff"/></clipPath></defs></svg>