<svg xmlns="http://www.w3.org/2000/svg" width="14" height="14" fill="none" viewBox="0 0 14 14"><circle cx="7.334" cy="7" r="6.667" fill="#BA0A1F"/><path fill="#fff" d="M8.00033 3.66667C8.00033 4.03486 7.70185 4.33333 7.33366 4.33333C6.96547 4.33333 6.66699 4.03486 6.66699 3.66667C6.66699 3.29848 6.96547 3 7.33366 3C7.70185 3 8.00033 3.29848 8.00033 3.66667Z"/><path fill="#fff" fill-rule="evenodd" d="M6.16699 5.66602C6.16699 5.38987 6.39085 5.16602 6.66699 5.16602H7.33366C7.6098 5.16602 7.83366 5.38987 7.83366 5.66602V10.3327C7.83366 10.6088 7.6098 10.8327 7.33366 10.8327C7.05752 10.8327 6.83366 10.6088 6.83366 10.3327V6.16602H6.66699C6.39085 6.16602 6.16699 5.94216 6.16699 5.66602Z" clip-rule="evenodd"/></svg>