<svg xmlns="http://www.w3.org/2000/svg" width="473" height="422" fill="none" viewBox="0 0 473 422"><g opacity=".5"><mask id="mask0_13207_44534" style="mask-type:alpha" width="678" height="422" x="0" y="0" maskUnits="userSpaceOnUse"><rect width="678" height="422" fill="url(#paint0_linear_13207_44534)"/><rect width="677" height="421" x=".5" y=".5" stroke="#0D6EFD" stroke-opacity=".5"/></mask><g mask="url(#mask0_13207_44534)"><g opacity=".5"><path stroke="#0D6EFD" stroke-opacity=".6" stroke-width=".749" d="M86.3779 109.388L405.536 123.007" opacity=".5"/><path stroke="#0D6EFD" stroke-opacity=".6" stroke-width=".749" d="M86.3779 109.388L334.64 426.525" opacity=".5"/><path stroke="#0D6EFD" stroke-opacity=".6" stroke-width=".749" d="M555.702 324.948L335.068 427.088" opacity=".5"/><circle cx="50.93" cy="50.93" r="50.93" fill="#0D6EFD" fill-opacity=".3" transform="matrix(-0.990507 -0.137462 -0.137462 0.990507 145.651 60.5723)"/><circle cx="50.93" cy="50.93" r="50.555" stroke="#0D6EFD" stroke-opacity=".6" stroke-width=".749" transform="matrix(-0.990507 -0.137462 -0.137462 0.990507 145.651 60.5723)"/><circle cx="74.522" cy="74.522" r="74.522" fill="#0D6EFD" fill-opacity=".3" transform="matrix(-0.990507 -0.137462 -0.137462 0.990507 426.707 356.011)"/><circle cx="74.522" cy="74.522" r="74.148" stroke="#0D6EFD" stroke-opacity=".6" stroke-width=".749" transform="matrix(-0.990507 -0.137462 -0.137462 0.990507 426.707 356.011)"/><circle cx="74.522" cy="74.522" r="74.522" fill="#0D6EFD" fill-opacity=".3" transform="matrix(-0.990507 -0.137462 -0.137462 0.990507 489.624 55.4243)"/><circle cx="74.522" cy="74.522" r="74.148" stroke="#0D6EFD" stroke-opacity=".6" stroke-width=".749" transform="matrix(-0.990507 -0.137462 -0.137462 0.990507 489.624 55.4243)"/></g></g></g><defs><linearGradient id="paint0_linear_13207_44534" x1="339" x2="384.42" y1="0" y2="337.928" gradientUnits="userSpaceOnUse"><stop stop-color="#D9D9D9"/><stop offset="1" stop-color="#D9D9D9" stop-opacity="0"/></linearGradient></defs></svg>