<svg xmlns="http://www.w3.org/2000/svg" width="678" height="638" fill="none" viewBox="0 0 678 638"><g opacity=".5"><mask id="mask0_13207_44516" style="mask-type:alpha" width="678" height="638" x="0" y="0" maskUnits="userSpaceOnUse"><rect width="678" height="638" fill="url(#paint0_linear_13207_44516)"/><rect width="677" height="637" x=".5" y=".5" stroke="#0D6EFD" stroke-opacity=".5"/></mask><g mask="url(#mask0_13207_44516)"><g opacity=".5"><path stroke="#0D6EFD" stroke-opacity=".5" stroke-width=".749" d="M467 151.349L149 120.966" opacity=".5"/><path stroke="#0D6EFD" stroke-opacity=".5" stroke-width=".749" d="M467 151.349L177.5 431.348" opacity=".5"/><path stroke="#0D6EFD" stroke-opacity=".5" stroke-width=".749" d="M478.501 144.848L641 65.3481" opacity=".5"/><path stroke="#0D6EFD" stroke-opacity=".5" stroke-width=".749" d="M585.501 388.849L176.999 431.848" opacity=".5"/><path stroke="#0D6EFD" stroke-opacity=".5" stroke-width=".749" d="M-27.4998 300.348L176.999 431.847" opacity=".5"/><path stroke="#0D6EFD" stroke-opacity=".5" stroke-width=".749" d="M584 389.349L466.5 157.349" opacity=".5"/><circle cx="465.93" cy="145.778" r="50.93" fill="#0D6EFD" fill-opacity=".3"/><circle cx="465.93" cy="145.778" r="50.555" stroke="#0D6EFD" stroke-opacity=".6" stroke-width=".749"/><circle cx="586" cy="388.848" r="35" fill="#CCD2D7"/><circle cx="586" cy="388.848" r="34.626" stroke="#0D6EFD" stroke-opacity=".5" stroke-width=".749"/><circle cx="-35.5" cy="297.348" r="55.5" fill="#0D6EFD" fill-opacity=".3"/><circle cx="-35.5" cy="297.348" r="55.126" stroke="#0D6EFD" stroke-opacity=".6" stroke-width=".749"/><circle cx="640" cy="68.848" r="26" fill="#0D6EFD" fill-opacity=".3"/><circle cx="640" cy="68.848" r="25.383" stroke="#0D6EFD" stroke-opacity=".6" stroke-width="1.235"/><circle cx="170.522" cy="423.371" r="74.522" fill="#0D6EFD" fill-opacity=".3"/><circle cx="170.522" cy="423.371" r="74.148" stroke="#0D6EFD" stroke-opacity=".6" stroke-width=".749"/><circle cx="149.522" cy="116.989" r="74.522" fill="#0D6EFD" fill-opacity=".3"/><circle cx="149.522" cy="116.989" r="74.148" stroke="#0D6EFD" stroke-opacity=".6" stroke-width=".749"/></g></g></g><defs><linearGradient id="paint0_linear_13207_44516" x1="339" x2="440.5" y1="0" y2="499.5" gradientUnits="userSpaceOnUse"><stop stop-color="#D9D9D9"/><stop offset="1" stop-color="#D9D9D9" stop-opacity="0"/></linearGradient></defs></svg>